/* XPM */
static char *result[] = {
/* columns rows colors chars-per-pixel */
"32 32 4 1 ",
"  c #2F2F2E",
". c gray71",
"X c gray88",
"o c #4D9262",
/* pixels */
"oooooooooooooooooooooooooooooooo",
"oooooooooooooooooooooooooooooooo",
"oooooooooooooooooooooooooooooooo",
"oooooooooooooooooooooooooooooooo",
"oooooooooooooooooooooooooooooooo",
"oooooooooooooooooooooooooooooooo",
"oooooooooooooooooooooooooooooooo",
"oooooooooooooooooooooooooooooooo",
"oooooooooooooooooooooooooooooooo",
"oooooooooooooooooooooooooooooooo",
"oooooooooooooooooooooooooooooooo",
"oooooooooooooooooooooooooooooooo",
"oooooooooooooooooooooooooooooooo",
"oooooooooooooooooooooooooooooooo",
"oooooooooooooooooooooooooooooooo",
"oooooooooooooooooooooooooooooooo",
"oooooooooooooooooooooooooooooooo",
"oooooooooooooooooooooooooooooooo",
"oooooooooooooooooooooooooooooooo",
"oooooooooooooooooooooooooooooooo",
"oooooooooooooooooooooooooooooooo",
"oooooooooooooooo  oo  oooooooooo",
"ooooooooooo  ooo .    oooooooooo",
"oooooooooo X ooo .XXX oooooooooo",
"oooooooooo X ooo .X .. ooooooooo",
"oooooooooo X ooo .XXXX ooooooooo",
"oooooooooo X     ..... ooooooooo",
"ooooooooooo XXXXXXXXX oooooooooo",
"ooooooooooo XXXXXXXXX oooooooooo",
"ooooooooooo X XXX X.X oooooooooo",
"ooooooooooo .     X X oooooooooo",
"ooooooooooo  o  o  o  oooooooooo"
};
