/* XPM */
static char *result[] = {
/* columns rows colors chars-per-pixel */
"32 32 5 1 ",
"  c #604800",
". c #CB9500",
"X c #F8BB0B",
"o c #F7D76E",
"O c None",
/* pixels */
"OOOOOOOOOOOOOOOOOOOOOOOOOOOOOOOO",
"OOOOOOOOOOOOOOOOOOOOOOOOOOOOOOOO",
"OOOOOOOOOOOOOOOOOOOOOOOOOOOOOOOO",
"OOOOOOOOOOOOOOOOOOOOOOOOOOOOOOOO",
"OOOOOOOOOOOOOOOOOOOOOOOOOOOOOOOO",
"OOOOOOOOOOOOOOO     OOOOOOOOOOOO",
"OOOOOOOOOOOOOO XXXXX OOOOOOOOOOO",
"OOOOOOOOOOOOO X..XXoX OOOOOOOOOO",
"OOOOOOOOOOOOO XXoooXX OOOOOOOOOO",
"OOOOOOOOOOOOO .XXXXX. OOOOOOOOOO",
"OOOOOOOOOOOOO o...... OOOOOOOOOO",
"OOOOOOOOOOOOO .oXXXX. OOOOOOOOOO",
"OOOOOOOOOOOOO o.....     OOOOOOO",
"OOOOOOOOOOOOO .oXXX.XXXXX OOOOOO",
"OOOOOOOOOOOOO o....X..XXoX OOOOO",
"OOOOOOOOOO     oXX.XXoooXX OOOOO",
"OOOOOOOOO XXXXX ....XXXXX. OOOOO",
"OOOOOOOO X..XXoX.X.o...... OOOOO",
"OOOOOO    XoooXX....oXXXX. OOOOO",
"OOOOO XX.X XXXX..X.o...... OOOOO",
"OOOO X.XX.. .... ...oXXXX. OOOOO",
"OOOO X.oX.. XXX. X o...... OOOOO",
"OOOO XXoX.. ....   .oXXXX. OOOOO",
"OOOO XXoX.. XXX OO o...... OOOOO",
"OOOO XoXX..    OOOO oXXXX OOOOOO",
"OOOOO XX.. OOOOOOOOO     OOOOOOO",
"OOOOOO    OOOOOOOOOOOOOOOOOOOOOO",
"OOOOOOOOOOOOOOOOOOOOOOOOOOOOOOOO",
"OOOOOOOOOOOOOOOOOOOOOOOOOOOOOOOO",
"OOOOOOOOOOOOOOOOOOOOOOOOOOOOOOOO",
"OOOOOOOOOOOOOOOOOOOOOOOOOOOOOOOO",
"OOOOOOOOOOOOOOOOOOOOOOOOOOOOOOOO"
};
