/* XPM */
static char *result[] = {
/* columns rows colors chars-per-pixel */
"16 16 5 1 ",
"  c #0F0B0D",
". c #29111F",
"X c #DEE472",
"o c #512D2F",
"O c white",
/* pixels */
"       ..       ",
"XXXXXX oo XXXXX ",
"XXXXXX oo XXXXX ",
"XXXXXX oo XXXXX ",
"XXXXXX oo XXXXX ",
"XXXXXX oo XXXXX ",
"       oo       ",
"ooooooooooooooo.",
"ooooooooooooooo.",
"       oo       ",
"XXXXXX oo XXXXX ",
"XXXXXX oo XXXXX ",
"XXXXXX oo XXXXX ",
"XXXXXX oo XXXXX ",
"XXXXXX oo XXXXX ",
"       ..       "
};
